<svg width="692" height="593" viewBox="0 0 692 593" fill="none" xmlns="http://www.w3.org/2000/svg">
<path d="M378.042 996.625C428.725 948.523 428.96 945.003 387.193 901.125C356.455 868.978 352.231 861 349.885 832.374C347.304 800.227 355.047 783.567 387.897 749.778C426.379 710.123 426.379 703.084 389.54 666.949C372.176 649.82 364.433 640.434 358.332 628.467C350.823 613.215 350.354 610.868 350.354 588.577C350.354 569.571 351.293 563.235 355.047 555.727C364.198 537.659 373.818 525.223 390.948 509.267C424.736 477.59 425.206 466.092 393.998 433.946C362.555 401.799 357.159 397.576 344.488 397.576C331.817 397.576 326.42 401.799 294.978 433.946C263.066 466.796 264.004 476.182 301.782 513.021C317.504 528.508 324.778 537.659 331.582 551.034C340.264 568.163 340.264 568.632 339.326 590.454C337.918 621.662 331.817 633.16 299.671 666.479C262.597 704.961 262.597 709.654 301.313 749.778C333.929 783.567 341.672 800.227 339.091 832.374C336.744 861 332.521 868.978 301.782 901.125C260.015 945.003 260.25 948.523 310.933 996.625C332.286 1016.8 332.99 1017.04 344.488 1017.04C355.985 1017.04 356.689 1016.8 378.042 996.625Z" fill="white" fill-opacity="0.05"/>
<path d="M378.042 294.514C428.725 246.411 428.96 242.892 387.193 199.013C356.455 166.866 352.231 158.889 349.885 130.262C347.304 98.1154 355.047 81.4556 387.897 47.6666C426.379 8.01157 426.379 0.972199 389.54 -35.1632C372.176 -52.2923 364.433 -61.6781 358.332 -73.6451C350.823 -88.897 350.354 -91.2435 350.354 -113.535C350.354 -132.541 351.293 -138.876 355.047 -146.385C364.198 -164.453 373.818 -176.889 390.948 -192.845C424.736 -224.522 425.206 -236.02 393.998 -268.166C362.555 -300.313 357.159 -304.536 344.488 -304.536C331.817 -304.536 326.42 -300.313 294.978 -268.166C263.066 -235.316 264.004 -225.93 301.782 -189.091C317.504 -173.604 324.778 -164.453 331.582 -151.078C340.264 -133.949 340.264 -133.48 339.326 -111.658C337.918 -80.4498 331.817 -68.9521 299.671 -35.6325C262.597 2.84936 262.597 7.54226 301.313 47.6666C333.929 81.4556 341.672 98.1154 339.091 130.262C336.744 158.889 332.521 166.866 301.782 199.013C260.015 242.892 260.25 246.411 310.933 294.514C332.286 314.693 332.99 314.928 344.488 314.928C355.985 314.928 356.689 314.693 378.042 294.514Z" fill="white" fill-opacity="0.05"/>
<path d="M649.64 996.625C700.324 948.523 700.558 945.003 658.791 901.125C628.053 868.978 623.829 861 621.483 832.374C618.902 800.227 626.645 783.567 659.495 749.778C697.977 710.123 697.977 703.084 661.138 666.949C643.774 649.82 636.031 640.434 629.93 628.467C622.421 613.215 621.952 610.868 621.952 588.577C621.952 569.571 622.891 563.235 626.645 555.727C635.796 537.659 645.417 525.223 662.546 509.267C696.335 477.59 696.804 466.092 665.596 433.946C634.154 401.799 628.757 397.576 616.086 397.576C603.415 397.576 598.018 401.799 566.576 433.946C534.664 466.796 535.603 476.182 573.38 513.021C589.102 528.508 596.376 537.659 603.18 551.034C611.862 568.163 611.862 568.632 610.924 590.454C609.516 621.662 603.415 633.16 571.269 666.479C534.195 704.961 534.195 709.654 572.911 749.778C605.527 783.567 613.27 800.227 610.689 832.374C608.343 861 604.119 868.978 573.38 901.125C531.614 945.003 531.848 948.523 582.532 996.625C603.884 1016.8 604.588 1017.04 616.086 1017.04C627.584 1017.04 628.287 1016.8 649.64 996.625Z" fill="white" fill-opacity="0.05"/>
<path d="M106.443 996.625C157.126 948.523 157.361 945.003 115.594 901.125C84.8556 868.978 80.632 861 78.2855 832.374C75.7044 800.227 83.4477 783.567 116.298 749.778C154.78 710.123 154.78 703.084 117.941 666.949C100.577 649.82 92.8335 640.434 86.7327 628.467C79.2241 613.215 78.7548 610.868 78.7548 588.577C78.7548 569.571 79.6934 563.235 83.4477 555.727C92.5989 537.659 102.219 525.223 119.348 509.267C153.137 477.59 153.607 466.092 122.399 433.946C90.9564 401.799 85.5595 397.576 72.8887 397.576C60.2178 397.576 54.821 401.799 23.3785 433.946C-8.53328 466.796 -7.5947 476.182 30.1832 513.021C45.9044 528.508 53.1784 537.659 59.9832 551.034C68.665 568.163 68.665 568.632 67.7265 590.454C66.3186 621.662 60.2178 633.16 28.0714 666.479C-9.00257 704.961 -9.00257 709.654 29.7139 749.778C62.3296 783.567 70.0729 800.227 67.4918 832.374C65.1454 861 60.9217 868.978 30.1832 901.125C-11.5837 945.003 -11.349 948.523 39.3344 996.625C60.6871 1016.8 61.391 1017.04 72.8887 1017.04C84.3863 1017.04 85.0902 1016.8 106.443 996.625Z" fill="white" fill-opacity="0.05"/>
<path d="M649.64 294.514C700.324 246.411 700.558 242.892 658.791 199.013C628.053 166.866 623.829 158.889 621.483 130.262C618.902 98.1154 626.645 81.4556 659.495 47.6666C697.977 8.01157 697.977 0.972199 661.138 -35.1632C643.774 -52.2923 636.031 -61.6781 629.93 -73.6451C622.421 -88.897 621.952 -91.2435 621.952 -113.535C621.952 -132.541 622.891 -138.876 626.645 -146.385C635.796 -164.453 645.417 -176.889 662.546 -192.845C696.335 -224.522 696.804 -236.02 665.596 -268.166C634.154 -300.313 628.757 -304.536 616.086 -304.536C603.415 -304.536 598.018 -300.313 566.576 -268.166C534.664 -235.316 535.603 -225.93 573.38 -189.091C589.102 -173.604 596.376 -164.453 603.18 -151.078C611.862 -133.949 611.862 -133.48 610.924 -111.658C609.516 -80.4498 603.415 -68.9521 571.269 -35.6325C534.195 2.84936 534.195 7.54226 572.911 47.6666C605.527 81.4556 613.27 98.1154 610.689 130.262C608.343 158.889 604.119 166.866 573.38 199.013C531.614 242.892 531.848 246.411 582.532 294.514C603.884 314.693 604.588 314.928 616.086 314.928C627.584 314.928 628.287 314.693 649.64 294.514Z" fill="white" fill-opacity="0.05"/>
<path d="M106.442 294.515C157.126 246.412 157.36 242.893 115.594 199.014C84.8551 166.867 80.6315 158.89 78.285 130.263C75.7039 98.1164 83.4472 81.4565 116.298 47.6676C154.779 8.01254 154.779 0.973175 117.94 -35.1622C100.576 -52.2913 92.833 -61.6772 86.7322 -73.6441C79.2236 -88.896 78.7543 -91.2425 78.7543 -113.534C78.7543 -132.54 79.6929 -138.875 83.4472 -146.384C92.5984 -164.452 102.219 -176.888 119.348 -192.844C153.137 -224.521 153.606 -236.019 122.398 -268.165C90.9559 -300.312 85.559 -304.535 72.8882 -304.535C60.2173 -304.535 54.8205 -300.312 23.378 -268.165C-8.53377 -235.315 -7.59519 -225.929 30.1827 -189.09C45.904 -173.603 53.178 -164.452 59.9827 -151.077C68.6646 -133.948 68.6646 -133.479 67.726 -111.657C66.3181 -80.4488 60.2173 -68.9512 28.0709 -35.6315C-9.00306 2.85034 -9.00306 7.54324 29.7134 47.6676C62.3291 81.4565 70.0724 98.1164 67.4913 130.263C65.1449 158.89 60.9213 166.867 30.1827 199.014C-11.5842 242.893 -11.3495 246.412 39.3339 294.515C60.6866 314.694 61.3905 314.929 72.8882 314.929C84.3858 314.929 85.0897 314.694 106.442 294.515Z" fill="white" fill-opacity="0.05"/>
<path d="M785.439 878.162C836.122 830.059 836.357 826.54 794.59 782.661C763.851 750.514 759.628 742.536 757.281 713.91C754.7 681.763 762.443 665.104 795.294 631.315C833.775 591.66 833.775 584.62 796.936 548.485C779.572 531.356 771.829 521.97 765.728 510.003C758.22 494.751 757.75 492.404 757.75 470.113C757.75 451.107 758.689 444.771 762.443 437.263C771.594 419.195 781.215 406.759 798.344 390.803C832.133 359.126 832.602 347.628 801.394 315.482C769.952 283.335 764.555 279.112 751.884 279.112C739.213 279.112 733.817 283.335 702.374 315.482C670.462 348.332 671.401 357.718 709.179 394.557C724.9 410.044 732.174 419.195 738.979 432.57C747.661 449.699 747.661 450.168 746.722 471.99C745.314 503.198 739.213 514.696 707.067 548.015C669.993 586.497 669.993 591.19 708.71 631.315C741.325 665.104 749.069 681.763 746.487 713.91C744.141 742.536 739.917 750.514 709.179 782.661C667.412 826.54 667.647 830.059 718.33 878.162C739.683 898.341 740.387 898.576 751.884 898.576C763.382 898.576 764.086 898.341 785.439 878.162Z" fill="white" fill-opacity="0.05"/>
<path d="M242.242 878.161C292.926 830.059 293.16 826.539 251.393 782.66C220.655 750.514 216.431 742.536 214.085 713.909C211.504 681.763 219.247 665.103 252.097 631.314C290.579 591.659 290.579 584.62 253.74 548.484C236.376 531.355 228.633 521.969 222.532 510.002C215.023 494.75 214.554 492.404 214.554 470.113C214.554 451.106 215.493 444.771 219.247 437.262C228.398 419.195 238.019 406.758 255.148 390.803C288.937 359.125 289.406 347.628 258.198 315.481C226.756 283.335 221.359 279.111 208.688 279.111C196.017 279.111 190.62 283.335 159.178 315.481C127.266 348.332 128.205 357.718 165.983 394.557C181.704 410.043 188.978 419.195 195.782 432.569C204.464 449.699 204.464 450.168 203.526 471.99C202.118 503.198 196.017 514.695 163.871 548.015C126.797 586.497 126.797 591.19 165.513 631.314C198.129 665.103 205.872 681.763 203.291 713.909C200.945 742.536 196.721 750.514 165.983 782.66C124.216 826.539 124.45 830.059 175.134 878.161C196.486 898.341 197.19 898.575 208.688 898.575C220.186 898.575 220.89 898.341 242.242 878.161Z" fill="white" fill-opacity="0.05"/>
<path d="M785.439 176.05C836.122 127.947 836.357 124.428 794.59 80.549C763.851 48.4026 759.628 40.4247 757.281 11.7979C754.7 -20.3485 762.443 -37.0083 795.294 -70.7972C833.775 -110.452 833.775 -117.492 796.936 -153.627C779.572 -170.756 771.829 -180.142 765.728 -192.109C758.22 -207.361 757.75 -209.707 757.75 -231.999C757.75 -251.005 758.689 -257.34 762.443 -264.849C771.594 -282.917 781.215 -295.353 798.344 -311.309C832.133 -342.986 832.602 -354.484 801.394 -386.63C769.952 -418.776 764.555 -423 751.884 -423C739.213 -423 733.817 -418.776 702.374 -386.63C670.462 -353.78 671.401 -344.394 709.179 -307.554C724.9 -292.068 732.174 -282.917 738.979 -269.542C747.661 -252.413 747.661 -251.943 746.722 -230.121C745.314 -198.914 739.213 -187.416 707.067 -154.096C669.993 -115.615 669.993 -110.922 708.71 -70.7972C741.325 -37.0083 749.069 -20.3485 746.487 11.7979C744.141 40.4247 739.917 48.4026 709.179 80.549C667.412 124.428 667.647 127.947 718.33 176.05C739.683 196.229 740.387 196.464 751.884 196.464C763.382 196.464 764.086 196.229 785.439 176.05Z" fill="white" fill-opacity="0.05"/>
<path d="M242.242 176.05C292.926 127.948 293.16 124.428 251.393 80.5495C220.655 48.4031 216.431 40.4252 214.085 11.7984C211.504 -20.348 219.247 -37.0078 252.097 -70.7968C290.579 -110.452 290.579 -117.491 253.74 -153.627C236.376 -170.756 228.633 -180.142 222.532 -192.108C215.023 -207.36 214.554 -209.707 214.554 -231.998C214.554 -251.004 215.493 -257.34 219.247 -264.849C228.398 -282.916 238.019 -295.352 255.148 -311.308C288.937 -342.985 289.406 -354.483 258.198 -386.629C226.756 -418.776 221.359 -423 208.688 -423C196.017 -423 190.62 -418.776 159.178 -386.629C127.266 -353.779 128.205 -344.393 165.983 -307.554C181.704 -292.067 188.978 -282.916 195.782 -269.541C204.464 -252.412 204.464 -251.943 203.526 -230.121C202.118 -198.913 196.017 -187.416 163.871 -154.096C126.797 -115.614 126.797 -110.921 165.513 -70.7968C198.129 -37.0078 205.872 -20.348 203.291 11.7984C200.945 40.4252 196.721 48.4031 165.983 80.5495C124.216 124.428 124.45 127.948 175.134 176.05C196.486 196.23 197.19 196.464 208.688 196.464C220.186 196.464 220.89 196.23 242.242 176.05Z" fill="white" fill-opacity="0.05"/>
<path d="M513.841 878.161C564.525 830.059 564.759 826.539 522.993 782.66C492.254 750.514 488.03 742.536 485.684 713.909C483.103 681.763 490.846 665.103 523.696 631.314C562.178 591.659 562.178 584.62 525.339 548.484C507.975 531.355 500.232 521.969 494.131 510.002C486.623 494.75 486.153 492.404 486.153 470.113C486.153 451.106 487.092 444.771 490.846 437.262C499.997 419.195 509.618 406.758 526.747 390.803C560.536 359.125 561.005 347.628 529.797 315.481C498.355 283.335 492.958 279.111 480.287 279.111C467.616 279.111 462.219 283.335 430.777 315.481C398.865 348.332 399.804 357.718 437.582 394.557C453.303 410.043 460.577 419.195 467.382 432.569C476.063 449.699 476.063 450.168 475.125 471.99C473.717 503.198 467.616 514.695 435.47 548.015C398.396 586.497 398.396 591.19 437.112 631.314C469.728 665.103 477.471 681.763 474.89 713.909C472.544 742.536 468.32 750.514 437.582 782.66C395.815 826.539 396.049 830.059 446.733 878.161C468.086 898.341 468.789 898.575 480.287 898.575C491.785 898.575 492.489 898.341 513.841 878.161Z" fill="white" fill-opacity="0.05"/>
<path d="M513.84 176.05C564.524 127.948 564.758 124.428 522.992 80.5495C492.253 48.4031 488.029 40.4252 485.683 11.7984C483.102 -20.348 490.845 -37.0078 523.696 -70.7968C562.177 -110.452 562.177 -117.491 525.338 -153.627C507.974 -170.756 500.231 -180.142 494.13 -192.108C486.622 -207.36 486.152 -209.707 486.152 -231.998C486.152 -251.004 487.091 -257.34 490.845 -264.849C499.996 -282.916 509.617 -295.352 526.746 -311.308C560.535 -342.985 561.004 -354.483 529.796 -386.629C498.354 -418.776 492.957 -423 480.286 -423C467.615 -423 462.218 -418.776 430.776 -386.629C398.864 -353.779 399.803 -344.393 437.581 -307.554C453.302 -292.067 460.576 -282.916 467.381 -269.541C476.063 -252.412 476.063 -251.943 475.124 -230.121C473.716 -198.913 467.615 -187.416 435.469 -154.096C398.395 -115.614 398.395 -110.921 437.111 -70.7968C469.727 -37.0078 477.47 -20.348 474.889 11.7984C472.543 40.4252 468.319 48.4031 437.581 80.5495C395.814 124.428 396.048 127.948 446.732 176.05C468.085 196.23 468.788 196.464 480.286 196.464C491.784 196.464 492.488 196.23 513.84 176.05Z" fill="white" fill-opacity="0.05"/>
</svg>
