<svg width="71" height="23" viewBox="0 0 71 23" fill="none" xmlns="http://www.w3.org/2000/svg">
<path d="M67.7425 8.30039H71.0001C70.5881 5.18782 68.2725 3.55176 65.054 3.55176C61.7964 3.55176 59.6182 5.24771 59.6182 8.16072C59.6182 11.4728 62.4244 12.2109 63.9158 12.5103C65.839 12.8894 67.7229 12.9293 67.7229 14.6052C67.7229 15.7425 66.7809 16.3012 65.4465 16.3012C63.7981 16.3012 62.6992 15.4632 62.4244 13.9469H59.2061C59.4022 17.219 61.7376 18.9748 65.1719 18.9748C68.3509 18.9748 70.9608 17.4984 70.9608 14.306C70.9608 10.8742 67.9584 10.2557 65.8586 9.93645C64.426 9.71701 62.8561 9.51746 62.8561 7.98113C62.8561 6.90373 63.6607 6.24533 65.0148 6.24533C66.5847 6.24533 67.5266 7.14323 67.7425 8.30039Z" fill="#333333"/>
<path d="M57.4199 4.05078H54.3389V18.516H57.4199V4.05078Z" fill="#333333"/>
<path d="M45.0372 13.4676H49.0602C48.4322 15.024 47.0192 15.7621 45.3904 15.7621C42.5254 15.7621 41.191 13.5075 41.191 11.2729C41.191 9.01825 42.4468 6.7238 45.3709 6.7238C47.1567 6.7238 48.491 7.56178 49.0013 9.05818L52.3177 9.05819C51.7487 5.68634 48.8443 3.75098 45.4102 3.75098C41.1713 3.75098 37.9922 6.68386 37.9922 11.3128C37.9922 16.0015 41.446 18.7749 45.3904 18.7749C49.2761 18.7749 52.3177 16.2011 52.3177 12.1708V10.9935H45.0372V13.4676Z" fill="#333333"/>
<path d="M30.9471 3.75098C27.4147 3.75098 24.8047 6.00551 24.8243 9.75652H28.0035C27.9642 8.12046 28.9846 6.62406 30.79 6.62406C32.36 6.62406 33.2823 7.74139 33.2823 9.01826C33.2823 10.2952 32.36 11.0135 30.6527 11.7917C28.3174 12.8491 26.6494 13.5275 24.942 14.1261V18.5155H36.8343V15.5626H28.6702C28.6702 15.5626 28.6973 15.5539 28.7107 15.5498C30.0993 15.122 31.1426 14.6573 32.3796 14.1061C35.0289 12.909 36.5399 11.4125 36.5399 8.85871C36.5399 5.72617 34.2636 3.75098 30.9471 3.75098Z" fill="#333333"/>
<path d="M16.4646 13.4279C12.4613 13.4479 11.8137 15.9019 11.5979 17.977L11.4998 18.8947H10.6951L10.597 17.977C10.3812 15.9019 9.71396 13.4478 5.84797 13.4279C5.20039 12.0711 4.92565 10.9737 4.92565 9.73668C4.92565 6.64415 7.41793 3.751 11.1072 3.751C14.7965 3.751 17.2496 6.62409 17.2496 9.75672C17.2496 10.9737 17.1318 12.0711 16.4646 13.4279ZM11.068 0C4.98458 0 0 5.06789 0 11.2729C0 17.4981 4.98458 22.5659 11.068 22.5659C17.2103 22.5659 22.1752 17.4981 22.1752 11.2729C22.1752 5.06791 17.2103 0 11.068 0Z" fill="#29B24A"/>
</svg>
