<svg width="53" height="53" viewBox="0 0 53 53" fill="none" xmlns="http://www.w3.org/2000/svg">
<path d="M27.9106 19.3208C22.0335 31.1194 29.1437 41.1696 39.8498 41.1897C46.7192 41.2027 50.8542 37.0663 51.9844 31.5869C52.3387 29.8693 52.5251 28.0904 52.5251 26.2676C52.5251 11.7604 40.7669 0 26.2625 0C24.7298 0 23.2302 0.138762 21.7695 0.39077C26.8476 1.20912 34.0347 7.02662 27.9106 19.3208Z" fill="#78D864"/>
<path d="M19.7969 49.22C14.9872 44.6639 11.8252 34.6263 21.2204 21.5988C26.3086 14.5433 28.4606 9.10097 26.1264 4.94713C24.3187 1.73011 20.3734 0.397375 16.925 1.70973C7.03066 5.47523 0 15.0499 0 26.2676C0 40.6432 11.5475 52.3145 25.8702 52.5253C23.2401 51.8693 21.2676 50.6131 19.7969 49.22Z" fill="#007844"/>
</svg>
