<svg width="140" height="21" viewBox="0 0 140 21" fill="none" xmlns="http://www.w3.org/2000/svg">
<path d="M62.7934 17.2013V15.143C62.0004 15.6735 60.6716 16.1403 59.4286 16.1403C57.564 16.1403 56.8567 15.2703 56.7495 13.4879H62.9006V12.151C62.9006 8.4376 61.2503 7.03711 58.6999 7.03711C55.5922 7.03711 54.1134 9.39248 54.1134 12.6179C54.1134 16.3313 55.9565 18.1349 59.2142 18.1349C60.8431 18.1349 62.0433 17.7105 62.7934 17.2013ZM78.739 18.1349C79.9178 18.1349 80.7536 17.9227 81.3752 17.4771V15.4188C80.7322 15.8644 79.9606 16.1403 78.889 16.1403C77.0673 16.1403 76.3172 14.7398 76.3172 12.533C76.3172 10.22 77.2387 9.03175 78.9105 9.03175C79.8963 9.03175 80.8608 9.37126 81.3752 9.68955V7.54638C80.8394 7.24931 79.8963 7.03711 78.6318 7.03711C75.3741 7.03711 73.681 9.35004 73.681 12.5966C73.681 16.1615 75.3313 18.1349 78.739 18.1349ZM39.4323 7.2493V11.472H36.0246V7.2493H33.4741V17.9227H36.0246V13.4666H39.4323V17.9227H41.9827V7.2493H39.4323ZM53.4918 15.9281H52.3559V7.2493H44.9189V8.16175C44.9189 10.7718 44.7475 14.1457 43.8473 15.9281H43.0543V20.363H45.4119V17.9227H51.1343V20.363H53.4918V15.9281ZM70.9377 17.9227H73.831L69.7375 12.1722L73.3381 7.2493H70.7662L67.1656 12.1722V7.2493H64.6152V17.9227H67.1656V12.6815L70.9377 17.9227ZM58.657 9.03175C59.9215 9.03175 60.3073 10.0715 60.3073 11.4083V11.6205H56.7495C56.8138 9.92297 57.4354 9.03175 58.657 9.03175ZM49.8055 15.9281H46.2049C46.9121 14.3154 47.105 11.4083 47.105 9.56224V9.24394H49.8055V15.9281Z" fill="#333333"/>
<path d="M94.6907 17.9273H97.7127L92.3975 10.1609L97.3697 3.17969H94.7979L89.9756 9.96994V3.17969H87.3823V17.9273H89.9756V11.0097L94.6907 17.9273Z" fill="#333333"/>
<path d="M106.379 10.6479C106.379 8.05911 105.05 7.08301 102.349 7.08301C100.656 7.08301 99.3273 7.6135 98.5557 8.05911V10.1598C99.2416 9.65057 100.742 9.09887 102.049 9.09887C103.271 9.09887 103.828 9.52326 103.828 10.6691V11.2633H103.421C99.5202 11.2633 97.7842 12.5364 97.7842 14.7008C97.7842 16.8652 99.113 18.0747 101.085 18.0747C102.585 18.0747 103.228 17.5867 103.721 17.0774H103.828C103.85 17.3533 103.935 17.714 104.021 17.9262H106.507C106.421 17.0562 106.379 16.1862 106.379 15.3162V10.6479ZM103.828 15.3799C103.507 15.8467 102.906 16.2286 102.006 16.2286C100.935 16.2286 100.399 15.592 100.399 14.6372C100.399 13.3852 101.278 12.9396 103.464 12.9396H103.828V15.3799Z" fill="#333333"/>
<path d="M110.791 7.2493H108.433V20.9996H110.984V16.6708C111.627 17.6257 112.57 18.1349 113.663 18.1349C116.149 18.1349 117.863 16.1615 117.863 12.5754C117.863 9.01053 116.192 7.03711 113.791 7.03711C112.591 7.03711 111.605 7.58882 110.919 8.62858L110.791 7.2493ZM113.02 16.1403C111.669 16.1403 110.984 15.0581 110.984 12.5966C110.984 10.1139 111.712 9.03175 113.148 9.03175C114.541 9.03175 115.227 10.1139 115.227 12.5754C115.227 15.0581 114.498 16.1403 113.02 16.1403Z" fill="#333333"/>
<path d="M126.832 9.2505V7.25586H118.281V9.2505H121.281V17.9293H123.832V9.2505H126.832Z" fill="#333333"/>
<path d="M128.341 7.25586V17.9293H132.22C134.728 17.9293 136.507 16.6561 136.507 14.1522C136.507 11.7756 134.921 10.5237 132.263 10.5237H130.891V7.25586H128.341ZM137.45 7.25586V17.9293H140V7.25586H137.45ZM132.07 15.9347H130.891V12.5183H132.134C133.227 12.5183 133.87 13.0064 133.87 14.2371C133.87 15.4678 133.163 15.9347 132.07 15.9347Z" fill="#333333"/>
<path d="M31.3294 17.9273H28.7361V5.17432H27.5788C25.457 5.17432 24.3425 6.2353 24.3425 7.80555C24.3425 9.58799 25.1141 10.4156 26.7001 11.4765L28.0074 12.3465L24.2354 17.9273H21.4277L24.814 12.9407C22.8637 11.5614 21.7707 10.2246 21.7707 7.95409C21.7707 5.11067 23.7638 3.17969 27.5574 3.17969H31.3294V17.9273Z" fill="#333333"/>
<path d="M7.50087 0C6.01743 0.000751814 4.5675 0.424213 3.33422 1.2169C2.10094 2.00958 1.13963 3.13592 0.571729 4.45365C0.0038249 5.77139 -0.145201 7.22139 0.143474 8.62052C0.432149 10.0196 1.14557 11.3051 2.19364 12.3146C3.55254 13.6213 6.75055 15.5115 6.9398 17.4971C6.96814 17.7937 7.1924 18.0366 7.50087 18.0366C7.80933 18.0366 8.03442 17.7937 8.06194 17.4971C8.25118 15.5115 11.4467 13.6245 12.8048 12.3186C13.8541 11.3095 14.5687 10.024 14.8583 8.62449C15.1479 7.22498 14.9995 5.77433 14.4318 4.4559C13.8641 3.13748 12.9027 2.01047 11.6691 1.21735C10.4354 0.424228 8.98487 0.000594379 7.50087 0ZM7.50087 9.68286C7.16377 9.68286 6.82998 9.61901 6.51855 9.49498C6.20712 9.37094 5.92414 9.18913 5.68579 8.95994C5.44743 8.73074 5.25835 8.45865 5.12935 8.15919C5.00035 7.85973 4.93395 7.53878 4.93395 7.21465C4.93395 6.89052 5.00035 6.56956 5.12935 6.2701C5.25835 5.97065 5.44743 5.69855 5.68579 5.46936C5.92414 5.24016 6.20712 5.05836 6.51855 4.93432C6.82998 4.81028 7.16377 4.74644 7.50087 4.74644C8.18165 4.74644 8.83456 5.00648 9.31595 5.46936C9.79734 5.93224 10.0678 6.56004 10.0678 7.21465C10.0678 7.86926 9.79734 8.49706 9.31595 8.95994C8.83456 9.42281 8.18165 9.68286 7.50087 9.68286Z" fill="#FF4433"/>
</svg>
