<svg width="1920" height="86" viewBox="0 0 1920 86" fill="none" xmlns="http://www.w3.org/2000/svg">
<path d="M982.079 62.7949C1010.52 92.6951 1012.61 92.8335 1038.55 68.1936C1057.56 50.0596 1062.28 47.568 1079.21 46.1837C1098.22 44.661 1108.07 49.2291 1128.05 68.6089C1151.5 91.3109 1155.67 91.3109 1177.03 69.5778C1187.16 59.3343 1192.71 54.7662 1199.79 51.1671C1208.81 46.7374 1210.2 46.4606 1223.38 46.4606C1234.62 46.4606 1238.37 47.0143 1242.81 49.2291C1253.49 54.6277 1260.84 60.3032 1270.28 70.4084C1289.01 90.3419 1295.81 90.6187 1314.82 72.208C1333.83 53.6588 1336.33 50.4749 1336.33 42.9999C1336.33 35.5248 1333.83 32.341 1314.82 13.7918C1295.39 -5.03424 1289.84 -4.48053 1268.06 17.8062C1258.9 27.0808 1253.49 31.372 1245.58 35.3864C1235.45 40.5082 1235.17 40.5082 1222.27 39.9545C1203.81 39.1239 1197.02 35.5248 1177.31 16.5603C1154.56 -5.3111 1151.78 -5.3111 1128.05 17.5293C1108.07 36.7707 1098.22 41.3388 1079.21 39.8161C1062.28 38.4318 1057.56 35.9401 1038.55 17.8062C1012.61 -6.8338 1010.52 -6.69538 982.079 23.2048C970.146 35.8017 970.007 36.217 970.007 42.9999C970.007 49.7828 970.146 50.1981 982.079 62.7949Z" fill="#78D864" fill-opacity="0.1"/>
<path d="M1756.75 62.7954C1785.2 92.6956 1787.28 92.834 1813.23 68.1941C1832.23 50.0601 1836.95 47.5685 1853.88 46.1842C1872.89 44.6615 1882.74 49.2296 1902.72 68.6093C1926.17 91.3113 1930.34 91.3113 1951.71 69.5783C1961.84 59.3347 1967.39 54.7667 1974.46 51.1676C1983.48 46.7379 1984.87 46.461 1998.05 46.461C2009.29 46.461 2013.04 47.0148 2017.48 49.2296C2028.16 54.6282 2035.52 60.3037 2044.95 70.4089C2063.68 90.3424 2070.48 90.6192 2089.49 72.2084C2108.5 53.6592 2111 50.4754 2111 43.0004C2111 35.5253 2108.5 32.3415 2089.49 13.7923C2070.07 -5.03375 2064.52 -4.48004 2042.73 17.8067C2033.57 27.0813 2028.16 31.3725 2020.25 35.3869C2010.12 40.5087 2009.85 40.5087 1996.94 39.955C1978.49 39.1244 1971.69 35.5253 1951.98 16.5608C1929.23 -5.31062 1926.45 -5.31062 1902.72 17.5298C1882.74 36.7712 1872.89 41.3392 1853.88 39.8165C1836.95 38.4323 1832.23 35.9406 1813.23 17.8067C1787.28 -6.83331 1785.2 -6.69489 1756.75 23.2053C1744.82 35.8022 1744.68 36.2174 1744.68 43.0004C1744.68 49.7833 1744.82 50.1986 1756.75 62.7954Z" fill="#78D864" fill-opacity="0.1"/>
<path d="M207.408 62.7954C235.853 92.6956 237.934 92.834 263.882 68.1941C282.892 50.0601 287.61 47.5685 304.538 46.1842C323.548 44.6615 333.4 49.2296 353.381 68.6093C376.831 91.3113 380.994 91.3113 402.363 69.5783C412.492 59.3347 418.042 54.7667 425.119 51.1676C434.138 46.7379 435.526 46.461 448.708 46.461C459.947 46.461 463.694 47.0148 468.134 49.2296C478.818 54.6282 486.173 60.3037 495.608 70.4089C514.34 90.3424 521.14 90.6192 540.149 72.2084C559.159 53.6592 561.657 50.4754 561.657 43.0004C561.657 35.5253 559.159 32.3415 540.149 13.7923C520.723 -5.03375 515.173 -4.48004 493.388 17.8067C484.23 27.0813 478.818 31.3725 470.909 35.3869C460.78 40.5087 460.502 40.5087 447.598 39.955C429.143 39.1244 422.344 35.5253 402.64 16.5608C379.884 -5.31062 377.109 -5.31062 353.381 17.5298C333.4 36.7712 323.548 41.3392 304.538 39.8165C287.61 38.4323 282.892 35.9406 263.882 17.8067C237.934 -6.83331 235.853 -6.69489 207.408 23.2053C195.474 35.8022 195.336 36.2174 195.336 43.0004C195.336 49.7833 195.474 50.1986 207.408 62.7954Z" fill="#78D864" fill-opacity="0.1"/>
<path d="M594.744 62.7949C623.189 92.6951 625.27 92.8335 651.218 68.1936C670.228 50.0596 674.946 47.568 691.874 46.1837C710.884 44.661 720.736 49.2291 740.717 68.6089C764.167 91.3109 768.33 91.3109 789.699 69.5778C799.828 59.3343 805.378 54.7662 812.455 51.1671C821.474 46.7374 822.862 46.4606 836.044 46.4606C847.283 46.4606 851.03 47.0143 855.47 49.2291C866.154 54.6277 873.509 60.3032 882.944 70.4084C901.676 90.3419 908.476 90.6187 927.485 72.208C946.495 53.6588 948.993 50.4749 948.993 42.9999C948.993 35.5248 946.495 32.341 927.485 13.7918C908.059 -5.03424 902.509 -4.48053 880.724 17.8062C871.566 27.0808 866.154 31.372 858.245 35.3864C848.116 40.5082 847.838 40.5082 834.934 39.9545C816.479 39.1239 809.68 35.5248 789.976 16.5603C767.22 -5.3111 764.445 -5.3111 740.717 17.5293C720.736 36.7707 710.884 41.3388 691.874 39.8161C674.946 38.4318 670.228 35.9401 651.218 17.8062C625.27 -6.8338 623.189 -6.69538 594.744 23.2048C582.81 35.8017 582.672 36.217 582.672 42.9999C582.672 49.7828 582.81 50.1981 594.744 62.7949Z" fill="#78D864" fill-opacity="0.1"/>
<path d="M1369.41 62.7949C1397.86 92.6951 1399.94 92.8335 1425.89 68.1936C1444.9 50.0596 1449.62 47.568 1466.55 46.1837C1485.56 44.661 1495.41 49.2291 1515.39 68.6089C1538.84 91.3109 1543 91.3109 1564.37 69.5778C1574.5 59.3343 1580.05 54.7662 1587.13 51.1671C1596.15 46.7374 1597.53 46.4606 1610.71 46.4606C1621.95 46.4606 1625.7 47.0143 1630.14 49.2291C1640.83 54.6277 1648.18 60.3032 1657.62 70.4084C1676.35 90.3419 1683.15 90.6187 1702.16 72.208C1721.17 53.6588 1723.66 50.4749 1723.66 42.9999C1723.66 35.5248 1721.17 32.341 1702.16 13.7918C1682.73 -5.03424 1677.18 -4.48053 1655.4 17.8062C1646.24 27.0808 1640.83 31.372 1632.92 35.3864C1622.79 40.5082 1622.51 40.5082 1609.6 39.9545C1591.15 39.1239 1584.35 35.5248 1564.65 16.5603C1541.89 -5.3111 1539.12 -5.3111 1515.39 17.5293C1495.41 36.7707 1485.56 41.3388 1466.55 39.8161C1449.62 38.4318 1444.9 35.9401 1425.89 17.8062C1399.94 -6.8338 1397.86 -6.69538 1369.41 23.2048C1357.48 35.8017 1357.34 36.217 1357.34 42.9999C1357.34 49.7828 1357.48 50.1981 1369.41 62.7949Z" fill="#78D864" fill-opacity="0.1"/>
<path d="M-179.928 62.7949C-151.483 92.6951 -149.402 92.8335 -123.454 68.1936C-104.444 50.0596 -99.7262 47.568 -82.7977 46.1837C-63.7878 44.661 -53.936 49.2291 -33.9548 68.6089C-10.5047 91.3109 -6.342 91.3109 15.0267 69.5778C25.1561 59.3343 30.7064 54.7662 37.7831 51.1671C46.8024 46.7374 48.1899 46.4606 61.372 46.4606C72.6114 46.4606 76.3578 47.0143 80.7981 49.2291C91.4825 54.6277 98.8366 60.3032 108.272 70.4084C127.005 90.3419 133.804 90.6187 152.814 72.208C171.823 53.6588 174.321 50.4749 174.321 42.9999C174.321 35.5248 171.823 32.341 152.814 13.7918C133.387 -5.03424 127.837 -4.48053 106.052 17.8062C96.894 27.0808 91.4825 31.372 83.5733 35.3864C73.4439 40.5082 73.1664 40.5082 60.2619 39.9545C41.8071 39.1239 35.0079 35.5248 15.3043 16.5603C-7.45205 -5.3111 -10.2272 -5.3111 -33.9548 17.5293C-53.936 36.7707 -63.7878 41.3388 -82.7977 39.8161C-99.7262 38.4318 -104.444 35.9401 -123.454 17.8062C-149.402 -6.8338 -151.483 -6.69538 -179.928 23.2048C-191.862 35.8017 -192 36.217 -192 42.9999C-192 49.7828 -191.862 50.1981 -179.928 62.7949Z" fill="#78D864" fill-opacity="0.1"/>
</svg>
