<svg width="226" height="135" viewBox="0 0 226 135" fill="none" xmlns="http://www.w3.org/2000/svg">
<path d="M128.121 243.17C145.298 226.868 145.378 225.675 131.223 210.804C120.805 199.909 119.374 197.205 118.578 187.504C117.704 176.609 120.328 170.963 131.461 159.512C144.503 146.072 144.503 143.687 132.018 131.44C126.133 125.635 123.509 122.454 121.441 118.398C118.896 113.229 118.737 112.434 118.737 104.879C118.737 98.438 119.056 96.2908 120.328 93.7461C123.429 87.6228 126.69 83.4081 132.495 78.0006C143.946 67.265 144.105 63.3683 133.529 52.4737C122.873 41.5791 121.044 40.1476 116.749 40.1476C112.455 40.1476 110.626 41.5791 99.97 52.4737C89.1549 63.6069 89.473 66.7878 102.276 79.2729C107.604 84.5214 110.069 87.6228 112.376 92.1557C115.318 97.9608 115.318 98.1199 115 105.516C114.523 116.092 112.455 119.989 101.56 131.281C88.9958 144.323 88.9958 145.913 102.117 159.512C113.171 170.963 115.795 176.609 114.92 187.504C114.125 197.205 112.694 199.909 102.276 210.804C88.1211 225.675 88.2006 226.868 105.378 243.17C112.614 250.009 112.853 250.088 116.749 250.088C120.646 250.088 120.885 250.009 128.121 243.17Z" fill="#007844" fill-opacity="0.05"/>
<path d="M220.168 243.17C237.344 226.868 237.424 225.675 223.269 210.804C212.851 199.909 211.42 197.205 210.625 187.504C209.75 176.609 212.374 170.963 223.507 159.512C236.549 146.072 236.549 143.687 224.064 131.44C218.179 125.635 215.555 122.454 213.488 118.398C210.943 113.229 210.784 112.434 210.784 104.879C210.784 98.438 211.102 96.2908 212.374 93.7461C215.476 87.6228 218.736 83.4081 224.541 78.0006C235.993 67.265 236.152 63.3683 225.575 52.4737C214.919 41.5791 213.09 40.1476 208.796 40.1476C204.501 40.1476 202.672 41.5791 192.016 52.4737C181.201 63.6069 181.519 66.7878 194.323 79.2729C199.651 84.5214 202.116 87.6228 204.422 92.1557C207.364 97.9608 207.364 98.1199 207.046 105.516C206.569 116.092 204.501 119.989 193.607 131.281C181.042 144.323 181.042 145.913 194.164 159.512C205.217 170.963 207.841 176.609 206.967 187.504C206.171 197.205 204.74 199.909 194.323 210.804C180.167 225.675 180.247 226.868 197.424 243.17C204.661 250.009 204.899 250.088 208.796 250.088C212.692 250.088 212.931 250.009 220.168 243.17Z" fill="#007844" fill-opacity="0.05"/>
<path d="M36.074 243.17C53.251 226.868 53.3305 225.675 39.1754 210.804C28.7579 199.909 27.3265 197.205 26.5313 187.504C25.6565 176.609 28.2808 170.963 39.414 159.512C52.4557 146.072 52.4557 143.687 39.9706 131.44C34.0859 125.635 31.4617 122.454 29.3941 118.398C26.8493 113.229 26.6903 112.434 26.6903 104.879C26.6903 98.438 27.0084 96.2908 28.2808 93.7461C31.3822 87.6228 34.6426 83.4081 40.4478 78.0006C51.8991 67.265 52.0581 63.3683 41.4816 52.4737C30.8255 41.5791 28.9965 40.1476 24.7022 40.1476C20.408 40.1476 18.579 41.5791 7.92289 52.4737C-2.89224 63.6069 -2.57414 66.7878 10.229 79.2729C15.5571 84.5214 18.0223 87.6228 20.3285 92.1557C23.2708 97.9608 23.2708 98.1199 22.9527 105.516C22.4756 116.092 20.408 119.989 9.51334 131.281C-3.05128 144.323 -3.05128 145.913 10.07 159.512C21.1237 170.963 23.7479 176.609 22.8732 187.504C22.078 197.205 20.6466 199.909 10.229 210.804C-3.92604 225.675 -3.84651 226.868 13.3304 243.17C20.567 250.009 20.8056 250.088 24.7022 250.088C28.5988 250.088 28.8374 250.009 36.074 243.17Z" fill="#007844" fill-opacity="0.05"/>
<path d="M82.0977 203.022C99.2746 186.72 99.3542 185.527 85.1991 170.656C74.7816 159.762 73.3502 157.058 72.5549 147.356C71.6802 136.462 74.3044 130.815 85.4377 119.364C98.4794 105.925 98.4794 103.539 85.9943 91.2925C80.1096 85.4874 77.4854 82.3064 75.4178 78.2508C72.873 73.0818 72.714 72.2865 72.714 64.7319C72.714 58.2905 73.0321 56.1434 74.3044 53.5987C77.4058 47.4754 80.6663 43.2607 86.4714 37.8531C97.9228 27.1175 98.0818 23.2209 87.5052 12.3262C76.8492 1.4316 75.0201 0.000182862 70.7259 0.000182811C66.4317 0.00018276 64.6026 1.4316 53.9466 12.3262C43.1314 23.4595 43.4495 26.6404 56.2527 39.1255C61.5808 44.374 64.046 47.4754 66.3521 52.0082C69.2945 57.8134 69.2945 57.9724 68.9764 65.368C68.4993 75.9446 66.4317 79.8412 55.537 91.1335C42.9724 104.175 42.9724 105.766 56.0937 119.364C67.1474 130.815 69.7716 136.462 68.8969 147.356C68.1016 157.058 66.6702 159.762 56.2527 170.656C42.0976 185.527 42.1772 186.72 59.3541 203.022C66.5907 209.861 66.8293 209.941 70.7259 209.941C74.6225 209.941 74.8611 209.861 82.0977 203.022Z" fill="#007844" fill-opacity="0.05"/>
<path d="M174.144 203.022C191.321 186.72 191.4 185.527 177.245 170.656C166.827 159.762 165.396 157.058 164.601 147.356C163.726 136.462 166.35 130.815 177.484 119.364C190.525 105.925 190.525 103.539 178.04 91.2925C172.156 85.4874 169.531 82.3064 167.464 78.2508C164.919 73.0818 164.76 72.2865 164.76 64.7319C164.76 58.2905 165.078 56.1434 166.35 53.5987C169.452 47.4754 172.712 43.2607 178.517 37.8531C189.969 27.1175 190.128 23.2209 179.551 12.3262C168.895 1.4316 167.066 0.000182862 162.772 0.000182811C158.478 0.00018276 156.649 1.4316 145.992 12.3262C135.177 23.4595 135.495 26.6404 148.299 39.1255C153.627 44.374 156.092 47.4754 158.398 52.0082C161.34 57.8134 161.34 57.9724 161.022 65.368C160.545 75.9446 158.478 79.8412 147.583 91.1335C135.018 104.175 135.018 105.766 148.14 119.364C159.193 130.815 161.818 136.462 160.943 147.356C160.148 157.058 158.716 159.762 148.299 170.656C134.144 185.527 134.223 186.72 151.4 203.022C158.637 209.861 158.875 209.941 162.772 209.941C166.668 209.941 166.907 209.861 174.144 203.022Z" fill="#007844" fill-opacity="0.05"/>
</svg>
